<svg width="103" height="13" viewBox="0 0 103 13" fill="none" xmlns="http://www.w3.org/2000/svg">
<path d="M11.344 12H8.208L4.032 5.696V12H0.896V0.719999H4.032L8.208 7.104V0.719999H11.344V12ZM16.2664 0.719999V12H13.1304V0.719999H16.2664ZM17.6683 6.336C17.6683 5.22667 17.8976 4.24 18.3563 3.376C18.8256 2.50133 19.4869 1.824 20.3403 1.344C21.1936 0.853333 22.1749 0.608 23.2843 0.608C24.6923 0.608 25.8763 0.986666 26.8363 1.744C27.7963 2.49067 28.4149 3.50933 28.6923 4.8H25.3163C25.1136 4.37333 24.8309 4.048 24.4683 3.824C24.1163 3.6 23.7056 3.488 23.2363 3.488C22.5109 3.488 21.9296 3.74933 21.4923 4.272C21.0656 4.784 20.8523 5.472 20.8523 6.336C20.8523 7.21067 21.0656 7.90933 21.4923 8.432C21.9296 8.944 22.5109 9.2 23.2363 9.2C23.7056 9.2 24.1163 9.088 24.4683 8.864C24.8309 8.64 25.1136 8.31467 25.3163 7.888H28.6923C28.4149 9.17867 27.7963 10.2027 26.8363 10.96C25.8763 11.7067 24.6923 12.08 23.2843 12.08C22.1749 12.08 21.1936 11.84 20.3403 11.36C19.4869 10.8693 18.8256 10.192 18.3563 9.328C17.8976 8.45333 17.6683 7.456 17.6683 6.336ZM35.5853 12.112C34.5293 12.112 33.5586 11.8667 32.6733 11.376C31.7879 10.8747 31.0839 10.1867 30.5613 9.312C30.0493 8.42667 29.7933 7.42933 29.7933 6.32C29.7933 5.21067 30.0493 4.21867 30.5613 3.344C31.0839 2.45867 31.7879 1.77067 32.6733 1.28C33.5586 0.789333 34.5293 0.544 35.5853 0.544C36.6519 0.544 37.6226 0.789333 38.4973 1.28C39.3826 1.77067 40.0813 2.45867 40.5933 3.344C41.1053 4.21867 41.3613 5.21067 41.3613 6.32C41.3613 7.42933 41.1053 8.42667 40.5933 9.312C40.0813 10.1867 39.3826 10.8747 38.4973 11.376C37.6119 11.8667 36.6413 12.112 35.5853 12.112ZM35.5853 9.2C36.3853 9.2 37.0146 8.93867 37.4733 8.416C37.9426 7.89333 38.1773 7.19467 38.1773 6.32C38.1773 5.424 37.9426 4.72 37.4733 4.208C37.0146 3.68533 36.3853 3.424 35.5853 3.424C34.7746 3.424 34.1399 3.68533 33.6813 4.208C33.2226 4.72 32.9933 5.424 32.9933 6.32C32.9933 7.20533 33.2226 7.90933 33.6813 8.432C34.1399 8.944 34.7746 9.2 35.5853 9.2ZM45.907 9.6H49.411V12H42.771V0.719999H45.907V9.6ZM53.7664 3.232V5.072H57.3664V7.456H53.7664V9.488H57.8464V12H50.6304V0.719999H57.8464V3.232H53.7664ZM62.532 3.232V5.072H66.132V7.456H62.532V9.488H66.612V12H59.396V0.719999H66.612V3.232H62.532ZM75.2976 10.16H71.2976L70.6896 12H67.3936L71.5056 0.719999H75.1216L79.2176 12H75.9056L75.2976 10.16ZM74.5136 7.76L73.2976 4.112L72.0976 7.76H74.5136ZM90.6878 12H87.5518L83.3758 5.696V12H80.2398V0.719999H83.3758L87.5518 7.104V0.719999H90.6878V12ZM102.922 12H99.7861L95.6101 5.696V12H92.4741V0.719999H95.6101L99.7861 7.104V0.719999H102.922V12Z" fill="#6C0305"/>
</svg>
